# xmcd
#
# Track frame offsets: 
#        150
#        12347
#        20751
#        31749
#        42131
#        54388
#        67174
#        82178
#        96267
#        107145
#        118239
#        128306
#        138775
#        151348
#
# Disc length: 2150 seconds
#
# Revision: 0
# Processed by: cddbd v1.5.2PL0 Copyright (c) Steve Scherf et al.
# Submitted via: ExactAudioCopy v0.99pb5
#
DISCID=b508640e
DTITLE=Various Artist - Country Stars [CD1]
DYEAR=2005
DGENRE=Country
TTITLE0=Tommy Overstreet - (Jeannie Marie) You Were A Lady
TTITLE1=Waylon Jennings - Abilene
TTITLE2=Buck Owens - Above And Beyond
TTITLE3=Faron Young - Alone With You
TTITLE4=Glen Campbell - By The Time I Get To Phoenix (Live)
TTITLE5=Conway Twitty - Crazy Dreams
TTITLE6=Bill Anderson - Deck Of Cards
TTITLE7=Frankie Laine - Don't Fence Me In
TTITLE8=Jim Reeves - Have I Told You Lately That I Love You
TTITLE9=Patsy Cline - Hungry For Love
TTITLE10=Webb Pierce - I'm In The Jailhouse Now
TTITLE11=Billie Jo Spears - I'm So Lonesome I Could Cry
TTITLE12=Kitty Wells - Makin' Believe
TTITLE13=Dave Dudley - Oh Lonesome Me
EXTD=
EXTT0=
EXTT1=
EXTT2=
EXTT3=
EXTT4=
EXTT5=
EXTT6=
EXTT7=
EXTT8=
EXTT9=
EXTT10=
EXTT11=
EXTT12=
EXTT13=
PLAYORDER=
